<?xml version="1.0" encoding="UTF-8"?>
<svg version="1.1" xmlns="http://www.w3.org/2000/svg" width="512" height="512">
<path d="M0 0 C1.65157 1.40689296 3.27386497 2.84846521 4.875 4.3125 C5.40834961 4.7981543 5.94169922 5.28380859 6.49121094 5.78417969 C26.6734498 24.39056052 41.59546982 50.39490915 43.0300293 78.33154297 C44.21348976 113.20092448 36.00265775 141.51642222 12.27734375 167.82128906 C7.25828312 173.15840995 1.60338163 177.7682538 -4.125 182.3125 C-3.62274902 182.56306152 -3.12049805 182.81362305 -2.60302734 183.07177734 C14.39387159 191.61478217 28.76479728 201.58583317 42.875 214.3125 C43.62394531 214.98796875 44.37289063 215.6634375 45.14453125 216.359375 C68.06771563 238.2087646 82.72530923 268.58710749 88.875 299.3125 C89.2153125 300.97732422 89.2153125 300.97732422 89.5625 302.67578125 C91.16375554 311.60500485 91.02209807 320.26596886 90.875 329.3125 C80.315 329.3125 69.755 329.3125 58.875 329.3125 C57.51084109 326.58418218 57.52550259 323.89106893 57.28027344 320.8894043 C55.00028624 293.25606175 45.61647849 267.14016497 26.875 246.3125 C25.90820312 245.15041016 25.90820312 245.15041016 24.921875 243.96484375 C19.84784293 237.95232201 14.11412411 233.08411182 7.875 228.3125 C7.08351563 227.70535156 6.29203125 227.09820312 5.4765625 226.47265625 C-7.88713785 216.68296878 -22.28959814 210.84683831 -38.125 206.3125 C-39.3934375 205.94898438 -40.661875 205.58546875 -41.96875 205.2109375 C-73.59081022 197.85537132 -108.32329202 204.54519947 -135.83251953 221.35595703 C-143.56446495 226.28515538 -150.50959872 231.97170028 -157.125 238.3125 C-158.424375 239.55 -158.424375 239.55 -159.75 240.8125 C-160.925625 242.05 -160.925625 242.05 -162.125 243.3125 C-162.70507812 243.90933594 -163.28515625 244.50617188 -163.8828125 245.12109375 C-185.67066446 268.40419045 -194.05660432 298.28656487 -196.125 329.3125 C-207.015 329.3125 -217.905 329.3125 -229.125 329.3125 C-229.125 310.5629189 -229.125 310.5629189 -228 304.0625 C-227.86948242 303.28221436 -227.73896484 302.50192871 -227.60449219 301.69799805 C-220.39151659 261.54283511 -197.28224992 223.7412742 -164.07177734 199.83447266 C-140.23473282 183.3125 -140.23473282 183.3125 -133.125 183.3125 C-133.125 182.6525 -133.125 181.9925 -133.125 181.3125 C-133.64964844 181.09078125 -134.17429687 180.8690625 -134.71484375 180.640625 C-146.02561062 174.4077875 -154.88991158 163.77920471 -162.125 153.3125 C-162.53089355 152.72629883 -162.93678711 152.14009766 -163.35498047 151.53613281 C-170.13957681 141.51199494 -174.54906744 130.84430822 -178.125 119.3125 C-178.48722656 118.14976562 -178.84945312 116.98703125 -179.22265625 115.7890625 C-186.68326736 86.01601909 -179.80785174 54.91955993 -164.46875 29.03125 C-161.17587947 23.68441073 -157.37099796 18.93334529 -153.125 14.3125 C-152.67785645 13.82297852 -152.23071289 13.33345703 -151.77001953 12.82910156 C-136.81450834 -3.36371762 -118.34632705 -14.13184056 -97.125 -19.6875 C-95.99320313 -20.0071875 -94.86140625 -20.326875 -93.6953125 -20.65625 C-61.49879742 -28.54111084 -26.12901875 -19.97095214 0 0 Z M-121.125 29.3125 C-122.094375 30.08722656 -123.06375 30.86195313 -124.0625 31.66015625 C-136.54353859 42.08317204 -146.04788965 60.07955391 -147.94189453 76.19335938 C-149.95313344 99.47009765 -146.45981783 120.76606374 -131.5625 139.375 C-130.1013002 141.0368052 -128.62387804 142.68459766 -127.125 144.3125 C-126.58617187 144.94285156 -126.04734375 145.57320312 -125.4921875 146.22265625 C-112.06124161 161.03719204 -91.01654101 168.24032195 -71.54858398 169.23779297 C-50.33717944 169.92378687 -30.95811611 162.18633419 -15.125 148.3125 C-14.43664062 147.71953125 -13.74828125 147.1265625 -13.0390625 146.515625 C2.1943096 132.42626108 9.89430784 111.60140033 10.87109375 91.234375 C10.89432644 67.90875025 2.11155231 47.75243162 -14.3125 31.09375 C-31.34334346 15.27939536 -51.56750949 9.588306 -74.3203125 10.0078125 C-91.73352636 10.69257002 -108.04013022 17.8953097 -121.125 29.3125 Z " fill="#000000" transform="translate(325.125,102.6875)"/>
</svg>
